# xmcd
#
# Track frame offsets:
# 150
# 20307
# 35710
# 47037
# 81677
# 105665
# 126602
# 143127
# 170295
# 191922
# 193550
# 214117
# 230602
# 258282
# 276322
# 295755
# 312940
# 335135
#
# Disc length: 4489 seconds
#
#
# Revision: 0
# Processed by: cddbd v1.5.2PL0 Copyright (c) Steve Scherf et al.
# Submitted via: FreeRIP 2.51 
#
DISCID=1d118712
DTITLE=Soul Cycles
DYEAR=1996
DGENRE=Soul
TTITLE0=Temple_of_your_love
TTITLE1=the_hard_side
TTITLE2=somebody_made_you_cry
TTITLE3=Perpex/say_what_you_mean_2_say
TTITLE4=time_4_me_2_get_down
TTITLE5=Tell_me_sister/frame_of_love
TTITLE6=straight_up
TTITLE7=temple_of_your_love/3d_world_girl
TTITLE8=in_this_wonderland
TTITLE9=mother_planet_gaya
TTITLE10=love_truth_honesty
TTITLE11=saphire_sunsets
TTITLE12=midnight_in_zürich
TTITLE13=love_into_speritual_sky/im_with_you
TTITLE14=talk_to_the_early_morning_sunrise
TTITLE15=vishu_loca_yeah_yeah
TTITLE16=shine_on_sitted
TTITLE17=mother_planet_gaya
EXTD=
EXTT0=
EXTT1=
EXTT2=
EXTT3=
EXTT4=
EXTT5=
EXTT6=
EXTT7=
EXTT8=
EXTT9=
EXTT10=
EXTT11=
EXTT12=
EXTT13=
EXTT14=
EXTT15=
EXTT16=
EXTT17=
PLAYORDER=
